# xmcd CD database file
#
# Track frame offsets:
#	150
#	11905
#	37730
#	62327
#	76732
#	109142
#	135522
#	160670
#
# Disc length: 2413 seconds
#
# Revision: 1
# Processed by: cddbd v1.4PL0 Copyright (c) Steve Scherf et al.
# Submitted via: CDex 1.40Release
#
DISCID=51096b08
DTITLE=Stevie Ray Vaughan - Colorado and New Mexico [disc 1]
DYEAR=1989
DGENRE=Blues
TTITLE0=The House Is Rockin' 
TTITLE1=Tightrope
TTITLE2=Look At Little Sister
TTITLE3=Let Me Love You Baby
TTITLE4=Texas Flood
TTITLE5=Leave My Little Girl Alone
TTITLE6=Wall of Denial
TTITLE7=Willie The Wimp
EXTD=YEAR: 1989 ID3G: 0
EXTT0=
EXTT1=
EXTT2=
EXTT3=
EXTT4=
EXTT5=
EXTT6=
EXTT7=
PLAYORDER=
